<svg width="16" height="16" viewBox="0 0 16 16" fill="none" xmlns="http://www.w3.org/2000/svg">
<path d="M8.79183 15.9565C8.17774 15.8612 7.65746 15.6548 7.11637 15.2917C6.89806 15.1452 6.49822 14.7624 4.79624 13.0703C3.31372 11.5965 2.71755 10.9851 2.65988 10.8794C2.48943 10.5672 2.54745 10.1504 2.79708 9.8939C2.97026 9.71595 3.17166 9.63164 3.4236 9.63164C3.78531 9.63164 3.83335 9.66632 4.8008 10.626C5.64343 11.4618 5.65551 11.4723 5.77541 11.4723C5.8615 11.4723 5.92075 11.4518 5.97906 11.4018L6.06129 11.3312L6.07595 7.11287C6.0906 2.89536 6.09061 2.89447 6.15256 2.76094C6.36311 2.30709 6.89954 2.1871 7.26885 2.51127C7.53138 2.74172 7.51065 2.42845 7.51138 6.17605C7.51209 9.74219 7.50695 9.62126 7.66199 9.72954C7.74824 9.78979 7.91892 9.79095 8.0035 9.73186C8.14194 9.63517 8.14133 9.64189 8.15679 8.03591L8.17145 6.51382L8.26015 6.3708C8.31509 6.28221 8.40344 6.19414 8.49231 6.13934C8.6193 6.06105 8.66155 6.05089 8.86018 6.05089C9.05881 6.05089 9.10106 6.06105 9.22805 6.13935C9.3169 6.19413 9.40527 6.28222 9.46021 6.37079L9.5489 6.51379L9.56356 7.88977C9.57928 9.36562 9.57735 9.34782 9.73057 9.42959C9.81656 9.47548 9.95533 9.47548 10.0413 9.42959C10.1915 9.34942 10.1927 9.34116 10.2083 8.18301C10.2218 7.18823 10.2275 7.09327 10.2781 7.01398C10.4458 6.75114 10.6346 6.63953 10.9117 6.6394C11.1244 6.6393 11.248 6.68851 11.4051 6.83596C11.6057 7.02418 11.5989 6.97558 11.6151 8.33574C11.6293 9.5297 11.6317 9.57104 11.6912 9.6509C11.7639 9.74856 11.9323 9.80075 12.0452 9.76063C12.0874 9.74564 12.1497 9.69628 12.1836 9.65095C12.2385 9.57748 12.2468 9.5173 12.2599 9.09566C12.2754 8.59377 12.2949 8.5169 12.4402 8.38508C12.6807 8.16698 13.061 8.17761 13.2769 8.40844C13.4342 8.57656 13.4322 8.54967 13.4321 10.5142C13.432 11.9726 13.4234 12.3869 13.389 12.5984C13.2101 13.6985 12.5739 14.6973 11.6666 15.3025C11.3084 15.5414 11.0593 15.6631 10.6515 15.7983C10.0675 15.9919 9.39109 16.0495 8.79183 15.9565ZM6.64287 1.73917C6.4542 1.70147 6.30141 1.61045 6.15594 1.4491C5.75675 1.00634 5.90214 0.334507 6.45239 0.0792081C6.99271 -0.17148 7.62515 0.200926 7.6798 0.801959C7.73122 1.36742 7.19731 1.84998 6.64287 1.73917Z" fill="#00C8DC" fill-opacity="0.6"/>
</svg>
